<?xml version="1.0" encoding="iso-8859-1"?>
<!-- Uploaded to: SVG Repo, www.svgrepo.com, Generator: SVG Repo Mixer Tools -->
<svg height="32px" width="32px" version="1.1" id="Layer_1" xmlns="http://www.w3.org/2000/svg" xmlns:xlink="http://www.w3.org/1999/xlink" 
	 viewBox="0 0 512.005 512.005" xml:space="preserve">
<circle style="fill:#7DD2F0;" cx="256.002" cy="256.002" r="256.002"/>
<path style="opacity:0.1;enable-background:new    ;" d="M57.825,256c0-131.607,99.318-240.001,227.088-254.365
	C275.42,0.568,265.777,0,256,0C114.615,0,0,114.615,0,256s114.615,256,256,256c9.777,0,19.42-0.568,28.912-1.635
	C157.143,496.001,57.825,387.607,57.825,256z"/>
<polygon style="fill:#FFFFFF;" points="410.011,209.897 302.103,209.897 302.103,101.989 209.897,101.989 209.897,209.897 
	101.989,209.897 101.989,302.103 209.897,302.103 209.897,410.011 302.103,410.011 302.103,302.103 410.011,302.103 "/>
</svg>