<!DOCTYPE svg PUBLIC "-//W3C//DTD SVG 1.1//EN" "http://www.w3.org/Graphics/SVG/1.1/DTD/svg11.dtd">

<svg height="32px" width="32px" version="1.1" id="Layer_1" xmlns="http://www.w3.org/2000/svg" xmlns:xlink="http://www.w3.org/1999/xlink" viewBox="0 0 512 512" xml:space="preserve" fill="#000000" transform="rotate(45)"><g id="SVGRepo_bgCarrier" stroke-width="0"></g><g id="SVGRepo_tracerCarrier" stroke-linecap="round" stroke-linejoin="round"></g><g id="SVGRepo_iconCarrier"> <path style="fill:#A5EB78;" d="M256.001,0C114.616,0,0.001,114.615,0.001,256.001C0.001,397.385,114.616,512,256,512 s255.999-114.615,255.999-255.999C512.001,114.615,397.386,0,256.001,0z"></path> <g style="opacity:0.1;"> <path d="M57.394,256.001c0-131.682,99.429-240.123,227.303-254.39C275.275,0.559,265.704,0,256.001,0 C114.616,0,0.001,114.615,0.001,256.001C0.001,397.385,114.616,512,256,512c9.703,0,19.275-0.559,28.697-1.611 C156.823,496.124,57.394,387.682,57.394,256.001z"></path> </g> <polygon style="fill:#FFFFFF;" points="391.2,298.856 290.092,298.856 290.092,358.121 114.81,256.001 290.092,153.879 290.092,213.144 391.2,213.144 "></polygon> </g></svg>