<?xml version="1.0" encoding="iso-8859-1"?>
<!-- Uploaded to: SVG Repo, www.svgrepo.com, Generator: SVG Repo Mixer Tools -->
<svg height="32px" width="32px" version="1.1" id="Layer_1" xmlns="http://www.w3.org/2000/svg" xmlns:xlink="http://www.w3.org/1999/xlink" 
	 viewBox="0 0 512.001 512.001" xml:space="preserve">
<path style="fill:#A9AFBF;" d="M259.601,262.577c0.001-0.001,0.002-0.003,0.003-0.004l-43.075,6.193l-9.075-42.968L366.681,0
	C426.126,41.919,313.625,186.86,259.601,262.577z"/>
<path style="fill:#CC5051;" d="M255.182,268.805c1.423-2.019,2.902-4.099,4.423-6.232l-52.15-36.774l-51.387,72.873
	c0.002,0,0.003,0,0.006,0c-0.507-0.01-1.01-0.038-1.52-0.038c-41.935,0-76.051,34.116-76.051,76.052v61.265
	c0,41.935,34.116,76.051,76.051,76.051c41.936,0,76.052-34.116,76.052-76.051v-61.265c0-13.406-3.5-26.004-9.614-36.953
	c0,0.001,0.001,0.002,0.002,0.003C225.809,319.537,235.74,296.374,255.182,268.805z M186.364,435.949
	c0,17.54-14.27,31.81-31.811,31.81c-17.54,0-31.81-14.27-31.81-31.81v-61.265c0-17.541,14.27-31.811,31.81-31.811
	c17.541,0,31.811,14.27,31.811,31.811L186.364,435.949L186.364,435.949z"/>
<path style="fill:#C7CFE2;" d="M252.4,262.577c-0.001-0.001-0.002-0.003-0.003-0.004l43.075,6.193l9.075-42.968L145.32,0
	C85.875,41.919,198.377,186.86,252.4,262.577z"/>
<path style="fill:#E65A5B;" d="M357.449,298.633c-0.511,0-1.014,0.028-1.522,0.038h0.007l-51.387-72.873l-52.15,36.774
	c1.521,2.133,3,4.213,4.423,6.232c19.441,27.57,29.372,50.732,34.189,68.929c-6.113,10.948-9.613,23.546-9.613,36.95v61.265
	c0,41.935,34.116,76.051,76.052,76.051c41.935,0,76.051-34.116,76.051-76.051v-61.265
	C433.499,332.75,399.382,298.633,357.449,298.633z M389.259,435.949c0,17.54-14.27,31.81-31.81,31.81
	c-17.541,0-31.811-14.27-31.811-31.81v-61.265c0-17.541,14.27-31.811,31.811-31.811c17.54,0,31.81,14.27,31.81,31.811V435.949z"/>
</svg>