<?xml version="1.0" encoding="iso-8859-1"?>
<!-- Uploaded to: SVG Repo, www.svgrepo.com, Generator: SVG Repo Mixer Tools -->
<svg height="32px" width="32px" version="1.1" id="Layer_1" xmlns="http://www.w3.org/2000/svg" xmlns:xlink="http://www.w3.org/1999/xlink" 
	 viewBox="0 0 512 512" xml:space="preserve">
<path style="fill:#C7CFE2;" d="M215.835,75.631L140.205,0H91.419c-12.734,0-19.11,15.395-10.106,24.399l36.691,36.691
	c15.507,15.507,16.456,40.77,1.381,56.695c-15.642,16.522-41.721,16.792-57.703,0.81L24.399,81.311C15.395,72.307,0,78.685,0,91.419
	v48.786l75.631,75.631h75.569l144.965,144.965v75.569L371.795,512h48.786c12.734,0,19.11-15.395,10.106-24.399l-36.691-36.691
	c-15.507-15.507-16.456-40.77-1.381-56.695c15.642-16.522,41.721-16.792,57.703-0.81l37.283,37.283
	c9.004,9.004,24.399,2.628,24.399-10.106v-48.786l-75.631-75.631h-75.569L215.835,151.199V75.631z"/>
</svg>